<?xml version="1.0" encoding="UTF-8" standalone="no"?>
<!-- Created with Inkscape (http://www.inkscape.org/) -->

<svg
   xmlns:dc="http://purl.org/dc/elements/1.1/"
   xmlns:cc="http://creativecommons.org/ns#"
   xmlns:rdf="http://www.w3.org/1999/02/22-rdf-syntax-ns#"
   xmlns:svg="http://www.w3.org/2000/svg"
   xmlns="http://www.w3.org/2000/svg"
   xmlns:sodipodi="http://sodipodi.sourceforge.net/DTD/sodipodi-0.dtd"
   xmlns:inkscape="http://www.inkscape.org/namespaces/inkscape"
   width="210mm"
   height="297mm"
   id="svg4983"
   version="1.1"
   inkscape:version="0.48.4 r9939"
   sodipodi:docname="v2.svg">
  <defs
     id="defs3">
    <marker
       inkscape:stockid="Arrow1Mstart"
       orient="auto"
       refY="0.0"
       refX="0.0"
       id="Arrow1Mstart"
       style="overflow:visible">
      <path
         id="path4200"
         d="M 0.0,0.0 L 5.0,-5.0 L -12.5,0.0 L 5.0,5.0 L 0.0,0.0 z "
         style="fill-rule:evenodd;stroke:#000000;stroke-width:1.0pt"
         transform="scale(0.4) translate(10,0)" />
    </marker>
    <marker
       inkscape:stockid="Arrow1Sstart"
       orient="auto"
       refY="0.0"
       refX="0.0"
       id="Arrow1Sstart"
       style="overflow:visible">
      <path
         id="path4206"
         d="M 0.0,0.0 L 5.0,-5.0 L -12.5,0.0 L 5.0,5.0 L 0.0,0.0 z "
         style="fill-rule:evenodd;stroke:#000000;stroke-width:1.0pt"
         transform="scale(0.2) translate(6,0)" />
    </marker>
    <marker
       inkscape:stockid="Arrow1Mend"
       orient="auto"
       refY="0.0"
       refX="0.0"
       id="Arrow1Mend"
       style="overflow:visible;">
      <path
         id="path4203"
         d="M 0.0,0.0 L 5.0,-5.0 L -12.5,0.0 L 5.0,5.0 L 0.0,0.0 z "
         style="fill-rule:evenodd;stroke:#000000;stroke-width:1.0pt;"
         transform="scale(0.4) rotate(180) translate(10,0)" />
    </marker>
  </defs>
  <sodipodi:namedview
     inkscape:document-units="mm"
     id="base"
     pagecolor="#ffffff"
     bordercolor="#666666"
     borderopacity="1.0"
     inkscape:pageopacity="0.0"
     inkscape:pageshadow="2"
     inkscape:zoom="1"
     inkscape:cx="248.81483"
     inkscape:cy="710.86045"
     inkscape:current-layer="layer1"
     showgrid="false"
     inkscape:object-nodes="true"
     showguides="true"
     inkscape:guide-bbox="true"
     inkscape:window-width="1366"
     inkscape:window-height="716"
     inkscape:window-x="-8"
     inkscape:window-y="-8"
     inkscape:window-maximized="1"
     inkscape:snap-smooth-nodes="true" />
  <metadata
     id="metadata4">
    <rdf:RDF>
      <cc:Work
         rdf:about="">
        <dc:format>image/svg+xml</dc:format>
        <dc:type
           rdf:resource="http://purl.org/dc/dcmitype/StillImage" />
        <dc:title></dc:title>
      </cc:Work>
    </rdf:RDF>
  </metadata>
  <g
     inkscape:label="Layer 1"
     inkscape:groupmode="layer"
     id="layer1">
    <path
       style="fill:#ffffff;stroke:#000000;stroke-width:1px;stroke-linecap:butt;stroke-linejoin:round;stroke-opacity:1"
       d="M -416.24387,290.97044 -63.892149,488.29688 691.72586,232.53432 339.37415,35.207897 z"
       id="path5089"
       inkscape:connector-curvature="0" />
    <path
       style="fill:#ffffff;stroke:#000000;stroke-width:1px;stroke-linecap:butt;stroke-linejoin:round;stroke-opacity:1"
       d="m 1824.6408,442.43162 22.3439,-7.59147 1.8179,27.30232 -22.3459,7.56367 z"
       id="path5235"
       inkscape:connector-curvature="0" />
    <path
       style="fill:#ffffff;stroke:#000000;stroke-width:1px;stroke-linecap:butt;stroke-linejoin:round;stroke-opacity:1"
       d="m 1089.5664,164.47924 736.8904,305.22686 -1.816,-27.27448 -736.8904,-305.22682 z"
       id="path5262"
       inkscape:connector-curvature="0" />
    <path
       style="fill:#ffffff;stroke:#000000;stroke-width:1px;stroke-linecap:butt;stroke-linejoin:round;stroke-opacity:1"
       d="m 1110.1321,129.629 736.8526,305.21115 -22.3439,7.59147 -736.8904,-305.22683 z"
       id="path5264"
       inkscape:connector-curvature="0" />
    <path
       style="fill:#ffffff;stroke:#000000;stroke-width:1px;stroke-linecap:butt;stroke-linejoin:round;stroke-opacity:1"
       d="m 1868.0358,422.01067 -2.6881,17.37832 c -6.3711,11.24282 -45.1901,14.19176 -58.5977,4.09819 l -4.8416,-17.08434"
       id="path5832"
       inkscape:connector-curvature="0"
       sodipodi:nodetypes="cccc" />
    <path
       style="fill:#ffffff;stroke:#000000;stroke-width:1px;stroke-linecap:butt;stroke-linejoin:round;stroke-opacity:1"
       d="m -416.24387,323.83046 352.351721,197.32644 3e-6,-32.86002 -352.351724,-197.32644 z"
       id="path5081"
       inkscape:connector-curvature="0" />
    <path
       style="fill:#ffffff;stroke:#000000;stroke-width:1px;stroke-linecap:butt;stroke-linejoin:round;stroke-opacity:1"
       d="m -63.892148,521.1569 755.618008,-255.76258 0,-32.86 c 0.30489,6.18056 0.3048,6.17879 0,0 L -63.892149,488.29688 z"
       id="path5087"
       inkscape:connector-curvature="0" />
    <path
       style="fill:#ffffff;stroke:#000000;stroke-width:1px;stroke-linecap:butt;stroke-linejoin:round;stroke-opacity:1"
       d="m 425.80018,300.35962 14.79839,-5.00897 0,-86.03266 -14.79839,5.00898 z"
       id="path5109-3"
       inkscape:connector-curvature="0"
       sodipodi:nodetypes="ccccc" />
    <path
       style="fill:#ffffff;stroke:#000000;stroke-width:1px;stroke-linecap:butt;stroke-linejoin:round;stroke-opacity:1"
       d="m 378.2863,273.75056 47.51388,26.60906 0,-86.03265 -47.51388,-26.60906 0,86.03265"
       id="path5107-7"
       inkscape:connector-curvature="0"
       sodipodi:nodetypes="ccccc" />
    <path
       style="fill:#ffffff;stroke:#000000;stroke-width:1px;stroke-linecap:butt;stroke-linejoin:round;stroke-opacity:1"
       d="m 378.2863,187.71791 47.51388,26.60906 14.79839,-5.00898 -47.51388,-26.60906 z"
       id="path5111-2"
       inkscape:connector-curvature="0"
       sodipodi:nodetypes="ccccc" />
    <path
       style="fill:#ffffff;stroke:#000000;stroke-width:1px;stroke-linecap:butt;stroke-linejoin:round;stroke-opacity:1"
       d="m 139.46645,397.27825 14.79839,-5.00897 0,-86.03266 -14.79839,5.00898 z"
       id="path5109"
       inkscape:connector-curvature="0" />
    <path
       style="fill:#ffffff;stroke:#000000;stroke-width:1px;stroke-linecap:butt;stroke-linejoin:round;stroke-opacity:1"
       d="m 91.952566,370.66919 47.513884,26.60906 0,-86.03265 -47.513884,-26.60906 0,86.03265"
       id="path5107"
       inkscape:connector-curvature="0"
       sodipodi:nodetypes="ccccc" />
    <path
       style="fill:#ffffff;stroke:#000000;stroke-width:1px;stroke-linecap:butt;stroke-linejoin:round;stroke-opacity:1"
       d="m 91.952566,284.63654 47.513884,26.60906 14.79839,-5.00898 -47.51388,-26.60906 z"
       id="path5111"
       inkscape:connector-curvature="0" />
    <path
       style="fill:#ffffff;stroke:#000000;stroke-width:1px;stroke-linecap:butt;stroke-linejoin:round;stroke-opacity:1"
       d="m -416.24387,290.97044 151.56375,84.87977 0,-35.12393 -151.56375,-84.87978 z"
       id="path5165"
       inkscape:connector-curvature="0" />
    <path
       style="fill:#ffffff;stroke:#000000;stroke-width:1px;stroke-linecap:butt;stroke-linejoin:round;stroke-opacity:1"
       d="M -83.791172,143.31749 67.772564,228.19728 -264.68012,340.72628 -416.24387,255.8465 z"
       id="path5167"
       inkscape:connector-curvature="0" />
    <path
       style="fill:#ffffff;stroke:#000000;stroke-width:1px;stroke-linecap:butt;stroke-linejoin:round;stroke-opacity:1"
       d="m -264.68012,375.85022 332.452684,-112.52903 0,-35.12391 -332.452694,112.529 1e-5,35.12393"
       id="path5169"
       inkscape:connector-curvature="0" />
    <path
       style="fill:#ffffff;stroke:#000000;stroke-width:5;stroke-linecap:round;stroke-linejoin:round;stroke-opacity:1;stroke-miterlimit:4;stroke-dasharray:none;marker-end:url(#Arrow1Mend)"
       d="m 27.345288,430.01843 -75.437845,25.5343"
       id="path5171"
       inkscape:connector-curvature="0" />
    <path
       style="fill:#ffffff;stroke:#000000;stroke-width:5;stroke-linecap:round;stroke-linejoin:round;stroke-opacity:1;stroke-miterlimit:4;stroke-dasharray:none;marker-end:url(#Arrow1Mend)"
       d="M 27.345288,430.01843 -31.878354,396.8516"
       id="path5173"
       inkscape:connector-curvature="0" />
    <path
       style="fill:#ffffff;stroke:#000000;stroke-width:5;stroke-linecap:round;stroke-linejoin:round;stroke-opacity:1;stroke-miterlimit:4;stroke-dasharray:none;marker-end:none;marker-start:url(#Arrow1Mstart)"
       d="m 27.345288,345.00286 0,85.01557"
       id="path5175"
       inkscape:connector-curvature="0" />
    <path
       style="fill:#ffffff;stroke:#000000;stroke-width:1px;stroke-linecap:butt;stroke-linejoin:round;stroke-opacity:1"
       d="m 304.98074,284.73623 -21.2354,-8.7959 117.52137,-39.77879 c 5.54952,0.47389 6.59548,8.16989 5.19947,12.37635 -0.76898,2.31706 -2.22768,2.60144 -5.19947,3.60734 z"
       id="path5185-6"
       inkscape:connector-curvature="0"
       sodipodi:nodetypes="cccscc" />
    <path
       style="fill:#ffffff;stroke:#000000;stroke-width:1px;stroke-linecap:butt;stroke-linejoin:round;stroke-opacity:1"
       d="m 244.7645,277.28031 1.73182,26.01019 472.0467,195.52609 -1.73183,-26.01014 z"
       id="path5227"
       inkscape:connector-curvature="0" />
    <path
       style="fill:#ffffff;stroke:#000000;stroke-width:1px;stroke-linecap:butt;stroke-linejoin:round;stroke-opacity:1"
       d="m 154.26484,335.75075 0,-15.98368 99.28345,-33.6056 c 5.54952,0.47389 6.59548,8.16989 5.19947,12.37635 -0.76898,2.31706 -2.22768,2.60144 -5.19947,3.60734 z"
       id="path5185"
       inkscape:connector-curvature="0"
       sodipodi:nodetypes="cccscc" />
    <path
       style="fill:#ffffff;stroke:#000000;stroke-width:1px;stroke-linecap:butt;stroke-linejoin:round;stroke-opacity:1"
       d="m 716.81119,472.80645 23.23164,-7.86347 1.73183,26.01014 -23.23164,7.86347 z"
       id="path5229"
       inkscape:connector-curvature="0" />
    <path
       style="fill:#ffffff;stroke:#000000;stroke-width:1px;stroke-linecap:butt;stroke-linejoin:round;stroke-opacity:1"
       d="m 716.81119,472.80646 23.23164,-7.86348 -472.04673,-195.52613 -23.2316,7.86347 z"
       id="path5231"
       inkscape:connector-curvature="0" />
    <path
       style="fill:#ffffff;stroke:#000000;stroke-width:1px;stroke-linecap:butt;stroke-linejoin:round;stroke-opacity:1"
       d="m 1724.9688,398.86534 34.2848,14.20108 0.2304,3.46004 -34.2848,-14.20108 z"
       id="path5266"
       inkscape:connector-curvature="0" />
    <path
       style="fill:#ffffff;stroke:#000000;stroke-width:1px;stroke-linecap:butt;stroke-linejoin:round;stroke-opacity:1"
       d="m 1759.2536,413.0664 24.3959,-8.25757 0.2304,3.46008 -24.3959,8.25755 z"
       id="path5270"
       inkscape:connector-curvature="0" />
    <path
       style="fill:#ffffff;stroke:#000000;stroke-width:1px;stroke-linecap:butt;stroke-linejoin:round;stroke-opacity:1"
       d="m 1749.3648,390.60777 34.2847,14.20107 -24.3959,8.25758 -34.2848,-14.20108 z"
       id="path5272"
       inkscape:connector-curvature="0" />
    <path
       style="fill:#ffffff;stroke:#000000;stroke-width:0.99921260000000001;stroke-linecap:round;stroke-linejoin:round;stroke-opacity:1;stroke-miterlimit:4;stroke-dasharray:none"
       d="m 1747.3074,402.04532 5.4426,2.25436 -0.2211,-3.32122 -5.4426,-2.25438 z"
       id="path5274"
       inkscape:connector-curvature="0" />
    <path
       style="fill:#ffffff;stroke:#000000;stroke-width:0.99921260000000001;stroke-linecap:round;stroke-linejoin:round;stroke-opacity:1;stroke-miterlimit:4;stroke-dasharray:none"
       d="m 1754.6997,396.14707 5.4426,2.25437 -7.6134,2.577 -5.4426,-2.25436 z"
       id="path5276"
       inkscape:connector-curvature="0" />
    <path
       style="fill:#ffffff;stroke:#000000;stroke-width:1px;stroke-linecap:butt;stroke-linejoin:round;stroke-opacity:1"
       d="m 1760.3635,401.72266 -7.6135,2.57702 -0.2211,-3.32122 7.6134,-2.57702 z"
       id="path5278"
       inkscape:connector-curvature="0" />
    <path
       style="fill:#ffffff;stroke:#000000;stroke-width:1px;stroke-linecap:butt;stroke-linejoin:round;stroke-opacity:1"
       d="m 1655.1816,405.32899 53.0994,21.99426 -0.2513,-3.77414 -53.0994,-21.99427 z"
       id="path5788"
       inkscape:connector-curvature="0" />
    <path
       style="fill:#ffffff;stroke:#000000;stroke-width:1px;stroke-linecap:butt;stroke-linejoin:round;stroke-opacity:1"
       d="m 1658.7786,400.25228 -3.8483,1.30257 53.0994,21.99426 3.8483,-1.30256 -53.0994,-21.99427 z"
       id="path5790"
       inkscape:connector-curvature="0" />
    <path
       style="fill:#ffffff;stroke:#000000;stroke-width:1px;stroke-linecap:butt;stroke-linejoin:round;stroke-opacity:1"
       d="m 1717.0052,424.37029 -5.1272,-2.12374 -3.8483,1.30256 0.2513,3.77414 z"
       id="path5792"
       inkscape:connector-curvature="0" />
    <path
       style="fill:#ffffff;stroke:#000000;stroke-width:5;stroke-linecap:round;stroke-linejoin:round;stroke-opacity:1;stroke-miterlimit:4;stroke-dasharray:none;marker-end:url(#Arrow1Mend)"
       d="m 1696.0809,380.87659 -76.1927,25.78984"
       id="path5794"
       inkscape:connector-curvature="0" />
    <path
       style="fill:#ffffff;stroke:#000000;stroke-width:5;stroke-linecap:round;stroke-linejoin:round;stroke-opacity:1;stroke-miterlimit:4;stroke-dasharray:none;marker-end:none;marker-start:url(#Arrow1Mstart)"
       d="m 1637.2048,356.48957 58.8761,24.38706"
       id="path5796"
       inkscape:connector-curvature="0" />
    <path
       style="fill:#ffffff;stroke:#000000;stroke-width:5;stroke-linecap:round;stroke-linejoin:round;stroke-opacity:1;stroke-miterlimit:4;stroke-dasharray:none;marker-end:url(#Arrow1Mend)"
       d="m 1696.0809,380.87659 -5.8092,-87.24729"
       id="path5798"
       inkscape:connector-curvature="0" />
    <path
       style="fill:#ffffff;stroke:#000000;stroke-width:1px;stroke-linecap:butt;stroke-linejoin:round;stroke-opacity:1"
       d="m 1799.4259,389.11615 2.4825,37.28669 c 1.3619,20.45596 67.3478,13.93798 66.1274,-4.39217 l -2.4827,-37.28668 c 2.4197,19.44321 -67.4297,23.67989 -66.1272,4.39216 z"
       id="path5804"
       inkscape:connector-curvature="0"
       sodipodi:nodetypes="ccccc" />
    <path
       style="fill:#ffffff;stroke:#000000;stroke-width:1px;stroke-linecap:butt;stroke-linejoin:round;stroke-opacity:1"
       d="m 1799.4259,389.11615 8.9491,-12.25397 c 4.4564,15.05174 47.8971,8.41685 46.4947,-3.01566 l 10.6834,10.87747"
       id="path5806"
       inkscape:connector-curvature="0"
       sodipodi:nodetypes="cccc" />
    <path
       style="fill:#ffffff;stroke:#000000;stroke-width:1px;stroke-linecap:butt;stroke-linejoin:round;stroke-opacity:1"
       d="m 1808.375,376.86218 c -0.1422,-10.95637 47.1728,-9.69761 46.4947,-3.01566"
       id="path5808"
       inkscape:connector-curvature="0"
       sodipodi:nodetypes="cc" />
    <path
       style="fill:#ffffff;stroke:#000000;stroke-width:1px;stroke-linecap:butt;stroke-linejoin:round;stroke-opacity:1"
       d="m 1811.8745,365.08914 0.8418,12.64473 c 0.5902,8.86492 38.093,7.1259 37.4529,-2.48762 l -0.8419,-12.64473 c -0,8.65469 -42.2021,10.71073 -37.4528,2.48762 z"
       id="path5810"
       inkscape:connector-curvature="0"
       sodipodi:nodetypes="ccccc" />
    <path
       style="fill:#ffffff;stroke:#000000;stroke-width:1px;stroke-linecap:butt;stroke-linejoin:round;stroke-opacity:1"
       d="m 1811.8745,365.08914 c -2.4309,-4.3216 37.1821,-9.15614 37.4528,-2.48762"
       id="path5830"
       inkscape:connector-curvature="0"
       sodipodi:nodetypes="cc" />
  </g>
</svg>
